<?xml version="1.0" encoding="utf-8"?>
<!-- Generator: Adobe Illustrator 15.0.0, SVG Export Plug-In . SVG Version: 6.00 Build 0)  -->
<!DOCTYPE svg PUBLIC "-//W3C//DTD SVG 1.1//EN" "http://www.w3.org/Graphics/SVG/1.1/DTD/svg11.dtd">
<svg version="1.1" id="Capa_1" xmlns="http://www.w3.org/2000/svg" xmlns:xlink="http://www.w3.org/1999/xlink" x="0px" y="0px"
	 width="50px" height="50px" viewBox="0 0 50 50" enable-background="new 0 0 50 50" xml:space="preserve">
<g>
	<g>
		<path fill="#474441" d="M2.125,5.995h5.272l7.509,27.157c0.215,0.797,0.951,1.35,1.779,1.35h23.08
			c0.735,0,1.379-0.431,1.686-1.104l8.399-19.31c0.245-0.583,0.184-1.226-0.152-1.747c-0.34-0.522-0.922-0.829-1.535-0.829H22.662
			c-1.012,0-1.839,0.829-1.839,1.839c0,1.012,0.827,1.839,1.839,1.839h22.681L38.54,30.823H18.064l-7.51-27.157
			C10.34,2.869,9.605,2.317,8.776,2.317H2.125c-1.011,0-1.838,0.827-1.838,1.839S1.114,5.995,2.125,5.995z"/>
		<path fill="#474441" d="M14.938,47.436c2.3,0,4.169-1.87,4.169-4.168c0-2.3-1.869-4.169-4.169-4.169
			c-2.299,0-4.168,1.868-4.168,4.169C10.77,45.565,12.638,47.436,14.938,47.436z"/>
		<path fill="#474441" d="M40.991,47.436c0.092,0,0.214,0,0.307,0c1.104-0.092,2.115-0.582,2.851-1.44
			c0.735-0.827,1.072-1.9,1.011-3.035c-0.152-2.269-2.144-4.016-4.444-3.861c-2.297,0.153-4.014,2.177-3.86,4.444
			C37.008,45.719,38.816,47.436,40.991,47.436z"/>
	</g>
</g>
</svg>
